#define img_steps_16_width 12
#define img_steps_16_height 16
const unsigned char img_steps_16_bits[] = {
   0x60, 0x00, 0x60, 0x00, 0x60, 0x00, 0x60, 0x00, 0x7c, 0x00, 0x7e, 0x00,
   0xf2, 0x01, 0x73, 0x0e, 0x7b, 0x08, 0x78, 0x00, 0xf8, 0x00, 0xd0, 0x00,
   0xd0, 0x00, 0x98, 0x00, 0x0e, 0x00, 0x02, 0x01 };
