#define lunokiot_logo_64_width 75
#define lunokiot_logo_64_height 64
static unsigned char lunokiot_logo_64_bits[] = {
   0x00, 0x00, 0x00, 0x00, 0x00, 0x00, 0x00, 0x00, 0x00, 0x00, 0x00, 0x00,
   0x00, 0x00, 0x00, 0x00, 0x00, 0x00, 0x00, 0x00, 0x84, 0x00, 0x00, 0x00,
   0x00, 0x00, 0x00, 0x00, 0x00, 0x00, 0xfc, 0x00, 0x00, 0x00, 0x00, 0x00,
   0x00, 0x00, 0x00, 0x00, 0x78, 0x00, 0x00, 0x00, 0x00, 0x00, 0x00, 0x80,
   0x10, 0x00, 0x78, 0x00, 0xfe, 0x00, 0x00, 0x00, 0x00, 0x80, 0x1f, 0x00,
   0xfe, 0xc1, 0xff, 0x0b, 0x00, 0x00, 0x00, 0x80, 0x1f, 0x00, 0xff, 0xf3,
   0xff, 0x7f, 0x00, 0x00, 0x00, 0x00, 0x0f, 0x00, 0x30, 0xf8, 0x03, 0xff,
   0x7f, 0x80, 0x79, 0x80, 0x3f, 0x00, 0x30, 0xfe, 0x00, 0xe4, 0xff, 0xe7,
   0x3f, 0xe0, 0x7f, 0x00, 0x00, 0x3f, 0x00, 0xc0, 0xff, 0xff, 0x1f, 0x00,
   0x06, 0x00, 0x00, 0x3f, 0x00, 0x00, 0xe0, 0xff, 0x3f, 0x00, 0x06, 0x00,
   0x80, 0x3f, 0x00, 0x00, 0x00, 0x7e, 0x3e, 0x00, 0x06, 0x00, 0xc0, 0x1f,
   0x00, 0x00, 0x00, 0x00, 0xfc, 0x00, 0x00, 0x00, 0x80, 0x3f, 0x00, 0x00,
   0x00, 0x00, 0xf8, 0x00, 0x00, 0x00, 0xc0, 0x3f, 0x00, 0x00, 0x00, 0x00,
   0xf0, 0x01, 0x02, 0x00, 0x80, 0x3f, 0x00, 0x00, 0x00, 0x00, 0xe0, 0x01,
   0x24, 0x00, 0x80, 0x3f, 0x00, 0x00, 0x00, 0x00, 0xe0, 0x03, 0x3c, 0x00,
   0x80, 0x3f, 0x00, 0x00, 0x00, 0x00, 0xc6, 0x03, 0x3c, 0x00, 0x80, 0x7f,
   0x20, 0x00, 0x00, 0x00, 0x9c, 0x0f, 0x7e, 0x00, 0x80, 0x3f, 0x08, 0x0c,
   0x00, 0x00, 0xf8, 0x0f, 0x3f, 0x00, 0x00, 0x7f, 0x40, 0x07, 0x07, 0x00,
   0xe1, 0x0f, 0x18, 0x00, 0x80, 0x3f, 0xf0, 0xcf, 0xff, 0x0f, 0x06, 0x1e,
   0x00, 0x00, 0x80, 0x1f, 0xf0, 0xff, 0xff, 0x3f, 0x1e, 0x3f, 0x00, 0x00,
   0x00, 0x7f, 0x50, 0xfe, 0xff, 0xff, 0x3f, 0x3c, 0x00, 0x00, 0x80, 0x3f,
   0x80, 0xff, 0x78, 0xfe, 0x7f, 0x7e, 0x00, 0x00, 0x00, 0xdf, 0xc0, 0x3f,
   0x00, 0x00, 0x7e, 0xf1, 0x00, 0x00, 0x80, 0x7f, 0x00, 0x07, 0x00, 0x00,
   0x7c, 0xf4, 0x00, 0x00, 0x00, 0xfc, 0x00, 0x00, 0x00, 0x00, 0xf0, 0xe2,
   0x00, 0x00, 0x00, 0xff, 0x00, 0x00, 0x00, 0x07, 0x00, 0xc8, 0x00, 0x00,
   0x00, 0x3f, 0x00, 0x00, 0x00, 0x1f, 0x00, 0x34, 0x00, 0x00, 0x00, 0xfe,
   0x01, 0x00, 0x00, 0x7c, 0x00, 0x70, 0x00, 0x00, 0x00, 0xfb, 0x00, 0x00,
   0x00, 0xf8, 0x01, 0x08, 0x00, 0x00, 0x00, 0xfc, 0x01, 0x00, 0x00, 0xe0,
   0x03, 0x70, 0x00, 0x00, 0x00, 0xfe, 0x01, 0x00, 0x00, 0x80, 0x0f, 0x1c,
   0x00, 0x00, 0x00, 0xf8, 0x03, 0x00, 0x00, 0xc0, 0x1e, 0xf8, 0x00, 0x00,
   0x00, 0xfc, 0x01, 0x00, 0x00, 0x9c, 0x39, 0xf8, 0x00, 0x00, 0x00, 0xfc,
   0x00, 0x00, 0x00, 0x78, 0x06, 0x7c, 0x00, 0x00, 0x00, 0x78, 0x03, 0x00,
   0x00, 0xf0, 0x00, 0x3f, 0x00, 0x00, 0x00, 0xfc, 0x01, 0xc0, 0x0f, 0x80,
   0xc1, 0x0f, 0x00, 0x00, 0x00, 0xf0, 0x00, 0xf0, 0x3f, 0x00, 0xe0, 0x03,
   0x00, 0x00, 0x00, 0x38, 0x00, 0xe0, 0xff, 0x00, 0xf0, 0x01, 0x00, 0x00,
   0x00, 0x08, 0x00, 0x80, 0xfd, 0x03, 0x7c, 0x00, 0x00, 0x00, 0x00, 0x20,
   0x00, 0x00, 0xc0, 0x0f, 0x3e, 0x00, 0x00, 0x00, 0x00, 0x18, 0x00, 0x00,
   0x00, 0x1f, 0x1e, 0x00, 0x00, 0x00, 0x00, 0x00, 0x00, 0xe0, 0x0f, 0x7c,
   0x3f, 0x00, 0x00, 0x00, 0x00, 0x00, 0x00, 0xfe, 0x3f, 0xf0, 0x1f, 0x00,
   0x00, 0x00, 0x00, 0x00, 0x80, 0xff, 0x79, 0xf0, 0x0f, 0x00, 0x00, 0x00,
   0x00, 0x00, 0xc0, 0xff, 0xf6, 0xfc, 0x03, 0x00, 0x00, 0x00, 0x00, 0x00,
   0xe0, 0x2f, 0xf0, 0xff, 0x07, 0x00, 0x00, 0x00, 0x00, 0x00, 0xf0, 0x03,
   0xe0, 0xff, 0x0f, 0x00, 0x00, 0x00, 0x30, 0x06, 0xc0, 0x00, 0xe0, 0xff,
   0x1f, 0x00, 0x00, 0x00, 0xf0, 0x07, 0x00, 0x04, 0xc0, 0xff, 0x1f, 0x00,
   0x00, 0x00, 0xf0, 0x07, 0x00, 0x02, 0xc0, 0xff, 0x1f, 0x00, 0x21, 0x00,
   0xe0, 0x03, 0x00, 0x00, 0x80, 0xff, 0x0f, 0x00, 0x3f, 0x00, 0xf0, 0x0f,
   0x00, 0x00, 0x80, 0xff, 0x07, 0x00, 0x1e, 0x00, 0xfc, 0x1f, 0x00, 0x00,
   0x00, 0xff, 0x01, 0x00, 0x1e, 0x00, 0xfe, 0x3f, 0x00, 0x00, 0x00, 0x7f,
   0x00, 0x80, 0x7f, 0x00, 0xc0, 0x01, 0x00, 0x00, 0x00, 0x3e, 0x00, 0xc0,
   0xff, 0x00, 0xc0, 0x01, 0x00, 0x00, 0x00, 0x3e, 0x00, 0x00, 0x0c, 0x00,
   0x80, 0x00, 0x00, 0x00, 0x00, 0x3c, 0x00, 0x00, 0x0c, 0x00, 0x80, 0x00,
   0x00, 0x00, 0x00, 0x7c, 0x00, 0x00, 0x00, 0x00, 0x00, 0x00, 0x00, 0x00,
   0x00, 0x78, 0x00, 0x00, 0x00, 0x00, 0x00, 0x00, 0x00, 0x00, 0x00, 0x78,
   0x00, 0x00, 0x00, 0x00 };
